<?xml version="1.0" encoding="UTF-8" standalone="no"?>
<!-- Created with Inkscape (http://www.inkscape.org/) -->

<svg
   xmlns:dc="http://purl.org/dc/elements/1.1/"
   xmlns:cc="http://creativecommons.org/ns#"
   xmlns:rdf="http://www.w3.org/1999/02/22-rdf-syntax-ns#"
   xmlns:svg="http://www.w3.org/2000/svg"
   xmlns="http://www.w3.org/2000/svg"
   version="1.1"
   width="50"
   height="50"
   id="svg2">
  <defs
     id="defs4" />
  <metadata
     id="metadata7">
    <rdf:RDF>
      <cc:Work
         rdf:about="">
        <dc:format>image/svg+xml</dc:format>
        <dc:type
           rdf:resource="http://purl.org/dc/dcmitype/StillImage" />
        <dc:title></dc:title>
      </cc:Work>
    </rdf:RDF>
  </metadata>
  <g
     transform="translate(0,-1002.3622)"
     id="layer1"
     style="display:none">
    <path
       d="m 40,18.039215 a 22.254902,22.254902 0 1 1 -44.5098038,0 22.254902,22.254902 0 1 1 44.5098038,0 z"
       transform="matrix(1.118323,0,0,1.118323,5.1552496,1007.1885)"
       id="path2985"
       style="opacity:0.2886179;color:#000000;fill:#d5bbdb;fill-opacity:1;stroke:#000000;stroke-width:0.2;stroke-linecap:butt;stroke-linejoin:miter;stroke-miterlimit:4;stroke-opacity:1;stroke-dasharray:none;stroke-dashoffset:0;marker:none;visibility:visible;display:inline;overflow:visible;enable-background:accumulate" />
  </g>
  <g
     id="layer3">
    <g
       id="text3838"
       style="font-size:23.40018082px;font-style:normal;font-weight:normal;text-align:center;line-height:125%;letter-spacing:0px;word-spacing:0px;text-anchor:middle;fill:#333333;fill-opacity:1;stroke:none;font-family:Sans">
      <path
         d="m 22.086406,31.587013 8.055238,0 0,1.942398 -10.831725,0 0,-1.942398 c 0.875981,-0.906449 2.068079,-2.121399 3.576297,-3.644852 1.515826,-1.531059 2.467981,-2.517492 2.856468,-2.9593 0.738864,-0.830271 1.253027,-1.531057 1.542492,-2.10236 0.297063,-0.5789 0.445599,-1.146384 0.445609,-1.702455 -10e-6,-0.906439 -0.319934,-1.645311 -0.959773,-2.216618 -0.63224,-0.571279 -1.45871,-0.856925 -2.479414,-0.856941 -0.723644,1.6e-5 -1.489176,0.1257 -2.296599,0.377054 -0.799815,0.251384 -1.656754,0.632246 -2.570821,1.142587 l 0,-2.330877 c 0.929301,-0.373229 1.797666,-0.655067 2.605098,-0.845515 0.807423,-0.190414 1.546295,-0.285629 2.216619,-0.285646 1.767193,1.7e-5 3.176382,0.441817 4.227572,1.3254 1.051168,0.883616 1.576757,2.064288 1.57677,3.54202 -1.3e-5,0.700799 -0.133314,1.367307 -0.399906,1.999527 -0.258998,0.624624 -0.735075,1.363496 -1.428233,2.216619 -0.190442,0.220908 -0.796013,0.860756 -1.816714,1.919546 -1.020719,1.051185 -2.460377,2.525121 -4.318978,4.421811"
         id="path3119" />
    </g>
  </g>
</svg>
