<?xml version="1.0" encoding="UTF-8" standalone="no"?>
<!-- Created with Inkscape (http://www.inkscape.org/) -->

<svg
   xmlns:dc="http://purl.org/dc/elements/1.1/"
   xmlns:cc="http://creativecommons.org/ns#"
   xmlns:rdf="http://www.w3.org/1999/02/22-rdf-syntax-ns#"
   xmlns:svg="http://www.w3.org/2000/svg"
   xmlns="http://www.w3.org/2000/svg"
   xmlns:sodipodi="http://sodipodi.sourceforge.net/DTD/sodipodi-0.dtd"
   xmlns:inkscape="http://www.inkscape.org/namespaces/inkscape"
   width="50"
   height="50"
   id="svg2"
   version="1.1"
   inkscape:version="0.48.4 r9939"
   sodipodi:docname="eraser.svg">
  <defs
     id="defs4" />
  <sodipodi:namedview
     id="base"
     pagecolor="#ffffff"
     bordercolor="#666666"
     borderopacity="1.0"
     inkscape:pageopacity="0.0"
     inkscape:pageshadow="2"
     inkscape:zoom="8.1708006"
     inkscape:cx="42.878356"
     inkscape:cy="19.418807"
     inkscape:document-units="px"
     inkscape:current-layer="layer3"
     showgrid="true"
     inkscape:window-width="1366"
     inkscape:window-height="702"
     inkscape:window-x="0"
     inkscape:window-y="27"
     inkscape:window-maximized="1"
     inkscape:snap-global="false">
    <inkscape:grid
       type="xygrid"
       id="grid2990"
       empspacing="5"
       visible="true"
       enabled="true"
       snapvisiblegridlinesonly="true" />
  </sodipodi:namedview>
  <metadata
     id="metadata7">
    <rdf:RDF>
      <cc:Work
         rdf:about="">
        <dc:format>image/svg+xml</dc:format>
        <dc:type
           rdf:resource="http://purl.org/dc/dcmitype/StillImage" />
        <dc:title />
      </cc:Work>
    </rdf:RDF>
  </metadata>
  <g
     inkscape:label="Layer 1"
     inkscape:groupmode="layer"
     id="layer1"
     transform="translate(0,-1002.3622)"
     style="display:none">
    <path
       sodipodi:type="arc"
       style="opacity:0.2886179;color:#000000;fill:#d5bbdb;fill-opacity:1;stroke:#000000;stroke-width:0.2;stroke-linecap:butt;stroke-linejoin:miter;stroke-miterlimit:4;stroke-opacity:1;stroke-dasharray:none;stroke-dashoffset:0;marker:none;visibility:visible;display:inline;overflow:visible;enable-background:accumulate"
       id="path2985"
       sodipodi:cx="17.745098"
       sodipodi:cy="18.039215"
       sodipodi:rx="22.254902"
       sodipodi:ry="22.254902"
       d="m 40,18.039215 c 0,12.291043 -9.963859,22.254902 -22.254902,22.254902 -12.2910428,0 -22.2549018,-9.963859 -22.2549018,-22.254902 0,-12.2910428 9.963859,-22.2549018 22.2549018,-22.2549018 C 30.036141,-4.2156868 40,5.7481722 40,18.039215 z"
       transform="matrix(1.118323,0,0,1.118323,5.1552496,1007.1885)" />
  </g>
  <g
     inkscape:groupmode="layer"
     id="layer3"
     inkscape:label="Layer">
    <path
       style="color:#000000;fill:#333333;fill-opacity:1;fill-rule:nonzero;stroke:none;stroke-width:0.91210287999999995;marker:none;visibility:visible;display:inline;overflow:visible;enable-background:accumulate"
       d="M -3.96875 -4.15625 L -3.96875 54.46875 L 17.53125 54.46875 C 15.44463 53.531228 14 51.443564 14 49 L 14 32 C 14 28.676 16.676 26 20 26 L 30 26 C 33.324 26 36 28.676 36 32 L 36 49 C 36 51.443564 34.55537 53.531228 32.46875 54.46875 L 54.15625 54.46875 L 54.15625 -4.15625 L -3.96875 -4.15625 z M 24.625 -3.125 L 42.46875 -3.125 C 35.873142 -0.12500001 45.253835 2.6858728 37.15625 6.875 C 23.950611 13.706679 41.355207 14.901102 29.03125 22.5625 L 20.5625 22.5625 C 30.303481 14.5625 12.789767 13.816177 23.375 6.875 C 29.763379 2.685871 19.25342 -0.12500001 24.625 -3.125 z "
       id="rect4101" />
  </g>
</svg>
