<?xml version="1.0" encoding="UTF-8" standalone="no"?>
<!-- Created with Inkscape (http://www.inkscape.org/) -->

<svg
   xmlns:dc="http://purl.org/dc/elements/1.1/"
   xmlns:cc="http://creativecommons.org/ns#"
   xmlns:rdf="http://www.w3.org/1999/02/22-rdf-syntax-ns#"
   xmlns:svg="http://www.w3.org/2000/svg"
   xmlns="http://www.w3.org/2000/svg"
   version="1.1"
   width="50"
   height="50"
   id="svg2">
  <defs
     id="defs4" />
  <metadata
     id="metadata7">
    <rdf:RDF>
      <cc:Work
         rdf:about="">
        <dc:format>image/svg+xml</dc:format>
        <dc:type
           rdf:resource="http://purl.org/dc/dcmitype/StillImage" />
        <dc:title></dc:title>
      </cc:Work>
    </rdf:RDF>
  </metadata>
  <g
     transform="translate(0,-1002.3622)"
     id="layer1"
     style="display:none">
    <path
       d="m 40,18.039215 a 22.254902,22.254902 0 1 1 -44.5098038,0 22.254902,22.254902 0 1 1 44.5098038,0 z"
       transform="matrix(1.118323,0,0,1.118323,5.1552496,1007.1885)"
       id="path2985"
       style="opacity:0.2886179;color:#000000;fill:#d5bbdb;fill-opacity:1;stroke:#000000;stroke-width:0.2;stroke-linecap:butt;stroke-linejoin:miter;stroke-miterlimit:4;stroke-opacity:1;stroke-dasharray:none;stroke-dashoffset:0;marker:none;visibility:visible;display:inline;overflow:visible;enable-background:accumulate" />
  </g>
  <g
     id="layer3">
    <g
       id="text3838"
       style="font-size:34.49615479px;font-style:normal;font-variant:normal;font-weight:bold;font-stretch:normal;text-align:center;line-height:125%;letter-spacing:0px;word-spacing:0px;writing-mode:lr-tb;text-anchor:middle;fill:#333333;fill-opacity:1;stroke:none;font-family:DejaVu Sans;-inkscape-font-specification:DejaVu Sans Bold">
      <path
         d="m 26.961074,29.157768 -6.080621,0 0,-0.825347 c -5e-6,-0.920786 0.185276,-1.734903 0.555847,-2.442355 0.370557,-0.718657 1.150987,-1.628223 2.341291,-2.728699 l 1.078005,-0.976942 c 0.640055,-0.583904 1.106067,-1.134135 1.398038,-1.650695 0.303177,-0.516527 0.454771,-1.03307 0.454783,-1.549632 -1.2e-5,-0.786026 -0.269513,-1.398018 -0.808504,-1.835977 -0.539012,-0.449148 -1.291369,-0.673732 -2.257072,-0.673753 -0.909574,2.1e-5 -1.89213,0.190917 -2.94767,0.57269 -1.055551,0.370584 -2.156013,0.92643 -3.301389,1.667539 l 0,-5.288962 c 1.358731,-0.471602 2.599558,-0.819707 3.722485,-1.044317 1.122914,-0.224559 2.206533,-0.336851 3.250858,-0.336876 2.739917,2.5e-5 4.828549,0.561486 6.265903,1.684382 1.437323,1.111716 2.155992,2.73995 2.15601,4.88471 -1.8e-5,1.100481 -0.218987,2.088651 -0.656909,2.964513 -0.437956,0.864665 -1.184698,1.796689 -2.240229,2.796075 l -1.078005,0.960098 c -0.7636,0.696223 -1.263299,1.257683 -1.4991,1.684383 -0.235826,0.415491 -0.353733,0.875888 -0.353721,1.381193 l 0,0.757972 m -6.080621,2.492887 6.080621,0 0,5.996402 -6.080621,0 0,-5.996402"
         id="path2988" />
    </g>
  </g>
</svg>
